<?xml version="1.0" ?>
<!-- Uploaded to: SVG Repo, www.svgrepo.com, Generator: SVG Repo Mixer Tools -->
<svg width="800px" height="800px" viewBox="0 0 8.4666669 8.4666669" id="svg8" version="1.1" xmlns="http://www.w3.org/2000/svg" xmlns:cc="http://creativecommons.org/ns#" xmlns:dc="http://purl.org/dc/elements/1.1/" xmlns:inkscape="http://www.inkscape.org/namespaces/inkscape" xmlns:rdf="http://www.w3.org/1999/02/22-rdf-syntax-ns#" xmlns:sodipodi="http://sodipodi.sourceforge.net/DTD/sodipodi-0.dtd" xmlns:svg="http://www.w3.org/2000/svg">
<defs id="defs2"/>
<g id="layer1" transform="translate(0,-288.53332)">
<path d="M 2 3 A 1.0000999 1.0000999 0 0 0 1 4 L 1 24 A 1.0000999 1.0000999 0 0 0 2 25 L 15 25 L 15 27.001953 L 12.003906 27.001953 A 1.0001001 1.0001001 0 0 0 11.900391 27.001953 A 1.0015858 1.0015858 0 0 0 12.003906 29.003906 L 19.998047 29.003906 A 1.000252 1.000252 0 1 0 19.998047 27.001953 L 17 27.001953 L 17 25 L 30 25 A 1.0000999 1.0000999 0 0 0 31 24 L 31 4 A 1.0000999 1.0000999 0 0 0 30 3 L 2 3 z M 3 5 L 29 5 L 29 23 L 3 23 L 3 5 z " id="rect959" style="color:#000000;font-style:normal;font-variant:normal;font-weight:normal;font-stretch:normal;font-size:medium;line-height:normal;font-family:sans-serif;font-variant-ligatures:normal;font-variant-position:normal;font-variant-caps:normal;font-variant-numeric:normal;font-variant-alternates:normal;font-feature-settings:normal;text-indent:0;text-align:start;text-decoration:none;text-decoration-line:none;text-decoration-style:solid;text-decoration-color:#000000;letter-spacing:normal;word-spacing:normal;text-transform:none;writing-mode:lr-tb;direction:ltr;text-orientation:mixed;dominant-baseline:auto;baseline-shift:baseline;text-anchor:start;white-space:normal;shape-padding:0;clip-rule:nonzero;display:inline;overflow:visible;visibility:visible;opacity:1;isolation:auto;mix-blend-mode:normal;color-interpolation:sRGB;color-interpolation-filters:linearRGB;solid-color:#000000;solid-opacity:1;vector-effect:none;fill:#000000;fill-opacity:1;fill-rule:nonzero;stroke:none;stroke-width:1.99999988;stroke-linecap:round;stroke-linejoin:round;stroke-miterlimit:4;stroke-dasharray:none;stroke-dashoffset:0;stroke-opacity:1;paint-order:stroke fill markers;color-rendering:auto;image-rendering:auto;shape-rendering:auto;text-rendering:auto;enable-background:accumulate" transform="matrix(0.26458333,0,0,0.26458333,0,288.53332)"/>
<path d="m 4.497917,294.08957 a 0.26458332,0.26458332 0 0 1 -0.2645833,0.26458 0.26458332,0.26458332 0 0 1 -0.2645833,-0.26458 0.26458332,0.26458332 0 0 1 0.2645833,-0.26459 0.26458332,0.26458332 0 0 1 0.2645833,0.26459 z" id="path971" style="opacity:1;fill:#000000;fill-opacity:1;stroke:none;stroke-width:0.52916664;stroke-linecap:round;stroke-linejoin:round;stroke-miterlimit:4;stroke-dasharray:none;stroke-dashoffset:0;stroke-opacity:1;paint-order:stroke fill markers"/>
</g>
</svg>